# xmcd CD database file
#
# Track frame offsets:
#	150
#	14530
#	28839
#	39720
#	55671
#	71395
#	84180
#	97870
#	114419
#	126245
#	145194
#	165787
#
# Disc length: 2450 seconds
#
# Revision: 0
# Processed by: cddbd v1.5.2PL0 Copyright (c) Steve Scherf et al.
# Submitted via: CDex 1.79
#
DISCID=8e09900c
DTITLE=Leslie Tom - High Maintenance
DYEAR=2006
DGENRE=Country
TTITLE0=Cowboy Talkin`
TTITLE1=I`ll Take The Fifth
TTITLE2=I Love Texas More Than You (featuring Ray Benson)
TTITLE3=Mud
TTITLE4=One Woman
TTITLE5=Boys In The Band
TTITLE6=What Do I Do With Me Now
TTITLE7=Bless This Barbeque
TTITLE8=Don`t Call Him A Cowboy
TTITLE9=Devil On The Left
TTITLE10=What`s Wrong With This Pictures
TTITLE11=Proverbs
EXTD=YEAR: 2006
EXTT0=
EXTT1=
EXTT2=
EXTT3=
EXTT4=
EXTT5=
EXTT6=
EXTT7=
EXTT8=
EXTT9=
EXTT10=
EXTT11=
PLAYORDER=
